ModelForces
version=1
nRows=4
nColumns=94
inDegrees=yes

This file contains the forces exerted on a model during a simulation.

A force is a generalized force, meaning that it can be either a force (N) or a torque (Nm).

Units are S.I. units (second, meters, Newtons, ...)
Angles are in degrees.

endheader 
time	addbrev_l	addlong_l	addmagDist_l	addmagIsch_l	addmagMid_l	addmagProx_l	bflh_l	bfsh_l	edl_l	ehl_l	fdl_l	fhl_l	gaslat_l	gasmed_l	glmax1_l	glmax2_l	glmax3_l	glmed1_l	glmed2_l	glmed3_l	glmin1_l	glmin2_l	glmin3_l	grac_l	iliacus_l	perbrev_l	perlong_l	piri_l	psoas_l	recfem_l	sart_l	semimem_l	semiten_l	soleus_l	tfl_l	tibant_l	tibpost_l	vasint_l	vaslat_l	vasmed_l	addbrev_r	addlong_r	addmagDist_r	addmagIsch_r	addmagMid_r	addmagProx_r	bflh_r	bfsh_r	edl_r	ehl_r	fdl_r	fhl_r	gaslat_r	gasmed_r	glmax1_r	glmax2_r	glmax3_r	glmed1_r	glmed2_r	glmed3_r	glmin1_r	glmin2_r	glmin3_r	grac_r	iliacus_r	perbrev_r	perlong_r	piri_r	psoas_r	recfem_r	sart_r	semimem_r	semiten_r	soleus_r	tfl_r	tibant_r	tibpost_r	vasint_r	vaslat_r	vasmed_r	lumbar_extension	lumbar_bending	lumbar_rotation	arm_flex_l	arm_add_l	arm_rot_l	arm_flex_r	arm_add_r	arm_rot_r	elbow_flex_l	elbow_flex_r	pro_sup_l	pro_sup_r	
          5.10000000	         25.58803944	        142.53400169	          7.81022127	          6.00230974	         12.53234502	        167.59105661	        424.25562209	          0.02377376	        107.66664305	         42.61201282	          4.31203825	          9.44679049	          0.01529885	        240.20220333	         11.23457613	        104.89807714	        270.53575165	          9.31123350	          8.10471042	         10.00523286	          2.74034313	          3.46245126	          2.04922862	         33.92500170	         21.16817041	          3.04485494	         99.80336318	        227.60647982	        277.55762312	        186.77076918	         70.50203217	         50.44425300	         37.91009999	         13.94566979	          0.75925054	        191.42089267	         13.10981828	         23.22105964	         70.59483589	         36.00910877	          5.57102028	          8.13453774	          6.65874564	          7.81796746	          7.06435002	          7.25422011	         50.41288498	         38.85632934	         75.92110599	         10.41518961	         18.36581325	         46.34647612	         21.55188431	        122.20648599	        157.18141611	        207.90521312	         16.79996997	          3.57681642	         41.12303851	         57.95147890	          3.46051531	          3.36053977	          0.60275055	          2.54795408	        182.67949039	         42.98919158	         98.99136494	          0.00204462	         23.70539684	        205.08001207	         99.72392909	          0.08210587	          5.75221952	         83.09651834	         29.15406459	        188.22354626	         21.30142782	         38.93429939	        120.33615182	         57.70101732	         74.18453803	        119.29496971	         -8.81309156	         14.63332374	        -81.47580899	         72.86850003	       -102.20020920	        137.27042402	         69.69722994	        -28.90816147	         85.24907442	          2.67551284	          3.37787799	
          5.11000000	         23.80226721	        176.94750362	          7.04916212	          5.55850078	         11.43148552	        150.08939768	        380.79536216	        387.73299614	        155.42007457	         48.52377723	          3.87500523	          8.90514420	        164.31393278	        252.95969295	          9.31368675	         87.58258986	        232.07184225	          9.50818973	          8.01920881	          9.71357129	          2.84873878	          3.39098876	          1.85462920	         30.92289860	        295.63611966	         84.14366475	        119.99407000	        174.32453931	       1126.38607089	        172.33605756	        177.46533584	        231.18882525	         36.54522958	         22.94618714	          0.45167373	        394.63145073	         11.12665314	         20.79876802	         63.22724707	         32.20684374	          5.32438032	          7.63661345	          5.34730899	          6.16263455	          6.69422316	          7.10300250	         29.73005894	        187.93340671	         92.04544470	         18.94538185	          0.05341811	          8.01361603	         91.08476909	         34.10545601	        117.05787636	        150.66947927	         12.10210635	          3.01156763	         29.64684749	         40.03278683	          3.34740075	          2.70095245	          0.13666287	          2.39435905	        158.10636037	         37.37355166	         97.50772390	          0.00083867	         19.77726506	        169.58081139	         83.54449131	        379.30490456	          5.56109231	        103.68968921	         36.90878242	        204.29381712	         19.31522871	         33.24495872	        102.52242574	         48.90429825	        -18.79769747	         15.09093868	         28.59654245	         55.19300173	        -99.17082560	         97.12499934	       -111.17290528	        141.18704173	         10.74333365	         -8.76596473	         81.20290525	          0.59095456	          2.05870745	
          5.12000000	         13.98807324	         93.20948807	          5.16988027	          4.86810938	          7.64159153	        104.92171643	        313.78449100	        283.08071411	        185.73508280	         37.10455817	          2.37332147	          6.88476501	        123.75117883	        256.27601589	         10.31467871	         65.97138272	        194.05631455	          9.58256764	          8.75144269	         11.16336254	          2.70724791	          3.74598750	          2.98831443	         20.04262900	        526.42440767	         91.04568391	        154.06734413	        182.89379226	       1066.54243365	        164.79455968	        225.44094215	          0.03080802	         24.65859113	         46.55405297	          3.32283221	        386.55240513	          7.31333503	         22.28868124	         65.92515369	         31.78777465	          5.00130306	          6.94130529	          5.40147976	          5.30138198	          6.71768407	          7.02061476	         30.24730869	        212.63848061	         94.26299817	         16.17986241	         21.97091737	         43.37418153	         11.59779499	        145.15583510	         89.92628724	        117.30988965	          9.81490759	          2.19489442	         19.93660188	         26.62776343	          2.95626547	          1.97864256	          0.00004421	          2.43914072	         20.96063171	         26.34602588	         77.49587501	          0.00028593	         10.80862012	        144.71107123	         72.11619273	        285.97666188	         20.03631254	         78.77987051	         30.43731684	        173.59405136	         15.31618847	         22.17136911	         69.70175388	         33.54199038	        -54.64730079	         35.18718426	         36.26536864	          6.67148246	       -114.06246701	         39.82089268	       -118.95363665	        143.68100183	        -36.53025899	         21.42237166	         40.95943177	          0.02989188	         -2.43624120	
          5.13000000	          8.77990511	         53.22344576	          5.09623891	          4.99988966	          5.56033241	         74.98496173	        225.07707664	        222.62346942	        182.21310320	         23.46470139	          3.48627290	         10.15005058	        113.88667922	        257.93107031	         11.36259429	        232.93975786	        169.20994437	         10.07939392	          9.55764792	         12.41874008	          2.68661393	          4.02315228	          4.25790333	         14.77033716	        377.51385888	         60.76407100	        160.11761972	        318.65213900	        805.64883908	        215.95097212	        185.91215114	        332.86237689	         19.75363568	         65.78303114	          3.60174289	        359.82377196	          9.19052186	         24.48538821	         72.12666080	         34.79788241	          4.58353590	          6.27678898	          5.20237922	          4.22854295	          6.34566208	          6.65337105	         26.88024725	        224.96814026	        108.39915829	         14.64996300	          5.73319797	         11.66393748	        127.65603677	        100.91430761	         73.49604525	         96.88107003	          7.91206281	          2.02814253	         14.96935841	         19.39600581	          5.17917831	          1.67003895	          0.00008918	          2.62281378	        678.19756605	         31.77714104	         66.72767387	          0.00033802	        207.86726822	         76.66932785	        167.25503897	        291.38998265	         17.19207579	         20.11128038	         28.24347983	        156.71291708	         13.08796842	         16.38960397	         51.85479520	         25.15749635	        -94.62366666	         16.59676034	        -18.89820639	         38.28852719	       -127.40299657	        -10.11789692	        -67.18557149	         93.70812985	        -70.61913327	         53.31605452	        -12.69342156	         -2.96553324	        -15.78410459	
